<?xml version="1.0" standalone="no"?>
<!DOCTYPE svg PUBLIC "-//W3C//DTD SVG 1.1//EN" "http://www.w3.org/Graphics/SVG/1.1/DTD/svg11.dtd" >
<svg xmlns="http://www.w3.org/2000/svg">
<metadata></metadata>
<defs>
<font id="itc_avant_garde_std_bk_cnRg" horiz-adv-x="1067" >
<font-face units-per-em="2048" ascent="1516" descent="-532" />
<missing-glyph horiz-adv-x="493" />
<glyph unicode="&#xfb01;" horiz-adv-x="878" d="M45 985v129h127v84q0 69 15.5 124t38 90.5t56 61t62.5 38.5t64.5 20t55 8.5t40.5 1.5v-121q-195 -11 -195 -235v-72h424v-1114h-137v985h-287v-985h-137v985h-127zM596 1313v203h137v-203h-137z" />
<glyph unicode="&#xfb02;" horiz-adv-x="878" d="M45 985v129h127v84q0 69 15.5 124t38 90.5t56 61t62.5 38.5t64.5 20t55 8.5t40.5 1.5v-121q-195 -11 -195 -235v-72h287v402h137v-1516h-137v985h-287v-985h-137v985h-127z" />
<glyph horiz-adv-x="2048" />
<glyph horiz-adv-x="2048" />
<glyph unicode="&#xd;" horiz-adv-x="2048" />
<glyph unicode=" "  horiz-adv-x="493" />
<glyph unicode="&#x09;" horiz-adv-x="493" />
<glyph unicode="&#xa0;" horiz-adv-x="493" />
<glyph unicode="!" horiz-adv-x="507" d="M178 0v219h152v-219h-152zM178 371v1145h152v-1145h-152z" />
<glyph unicode="&#x22;" horiz-adv-x="561" d="M68 950v566h133v-566h-133zM360 950v566h132v-566h-132z" />
<glyph unicode="#" d="M29 508v104h250l38 273h-237v102h252l55 404h109l-56 -404h256l56 404h108l-55 -404h231v-102h-245l-37 -273h231v-104h-246l-57 -426h-111l58 426h-256l-58 -426h-110l59 426h-235zM389 612h256l37 273h-256z" />
<glyph unicode="$" d="M121 438h149q10 -133 90 -204.5t185 -71.5t176.5 77.5t71.5 188.5q0 70 -22.5 120t-79 85.5t-93.5 51t-124 44.5q-5 2 -9 3.5t-8 2.5q-45 16 -80 32.5t-77 47t-70 67t-47 93.5t-19 125q0 148 85 249.5t226 116.5v158h127v-158q147 -22 224 -122t85 -232h-147 q-9 75 -50 128.5t-88 75t-94 21.5q-86 0 -151.5 -65t-65.5 -168q0 -35 9 -64.5t20.5 -50.5t37.5 -42.5t43.5 -33t57 -28.5t58.5 -24t66 -23q4 -1 5.5 -2t4.5 -2t5.5 -1.5t4.5 -1.5q33 -12 56.5 -22t59.5 -29.5t61.5 -39.5t54.5 -51.5t47 -67.5t30 -86t12 -107 q0 -155 -96 -270.5t-250 -124.5v-185h-127v185q-154 10 -251.5 124.5t-102.5 280.5z" />
<glyph unicode="%" horiz-adv-x="1601" d="M61 1188v2q0 157 97 254.5t248 97.5t247.5 -98t96.5 -256q0 -157 -96.5 -254.5t-247.5 -97.5t-248 97.5t-97 254.5zM176 1186q0 -107 65 -175.5t165 -68.5t164.5 69t64.5 177q0 110 -64.5 179t-164.5 69t-165 -69t-65 -179v-2zM303 -8l868 1532h127l-866 -1532h-129z M852 328v2q0 156 97 253t247 97q151 0 247.5 -97.5t96.5 -254.5q0 -158 -96.5 -256.5t-247.5 -98.5t-247.5 98.5t-96.5 256.5zM967 326q0 -108 64.5 -177t164.5 -69t164.5 69t64.5 179q0 108 -64.5 176.5t-164.5 68.5t-164.5 -68.5t-64.5 -176.5v-2z" />
<glyph unicode="&#x26;" horiz-adv-x="1304" d="M78 406q0 91 28.5 169.5t78.5 135.5t104 97t117 69q-37 43 -51 60t-42 55.5t-39 65t-22 66.5t-12 82q0 145 94 240.5t231 95.5q136 0 227 -97.5t91 -227.5q0 -122 -77.5 -216.5t-195.5 -158.5l262 -310l187 390h151l-245 -500l292 -342l-104 -94l-258 307 q-4 -6 -23.5 -36.5t-27.5 -42t-29 -41.5t-33.5 -44t-36 -39.5t-42 -38.5t-45.5 -30.5t-52.5 -26t-56.5 -15t-64 -6.5q-91 0 -168.5 36.5t-129 96.5t-80.5 138t-29 162zM233 418q2 -123 74.5 -211t190.5 -88q34 0 66 11t55.5 25t49 42t40 45.5t35 54t26.5 48.5l23 46l6 12 l-299 361q-146 -71 -205.5 -158.5t-61.5 -187.5zM381 1221q0 -41 10 -76.5t36.5 -74t43.5 -58t59 -66.5q109 62 160 125.5t51 147.5q0 77 -49.5 136.5t-126.5 59.5h-2q-86 0 -134 -57.5t-48 -136.5z" />
<glyph unicode="'" horiz-adv-x="454" d="M162 950v566h131v-566h-131z" />
<glyph unicode="(" horiz-adv-x="679" d="M137 512q0 329 138.5 607.5t347.5 414.5v-150q-158 -131 -255.5 -358.5t-97.5 -513.5q0 -284 95.5 -504.5t257.5 -369.5v-150q-216 154 -351 423.5t-135 600.5z" />
<glyph unicode=")" horiz-adv-x="679" d="M57 -362q158 129 255.5 357t97.5 513q0 286 -95 507t-258 369v150q216 -154 352 -424.5t136 -601.5q0 -328 -139 -606t-349 -414v150z" />
<glyph unicode="*" horiz-adv-x="739" d="M49 1067l246 117l-246 110l57 105l230 -158l-27 275h119l-25 -275l228 158l57 -103l-246 -114l248 -117l-59 -104l-228 159l25 -274h-119l25 276l-223 -161z" />
<glyph unicode="+" horiz-adv-x="1099" d="M68 451v127h417v452h129v-452h418v-127h-418v-451h-129v451h-417z" />
<glyph unicode="," horiz-adv-x="526" d="M90 -170l135 387h137l-151 -387h-121z" />
<glyph unicode="-" horiz-adv-x="536" d="M51 504v137h434v-137h-434z" />
<glyph unicode="." horiz-adv-x="526" d="M195 0v217h139v-217h-139z" />
<glyph unicode="/" horiz-adv-x="569" d="M-100 -139l626 1663h144l-627 -1663h-143z" />
<glyph unicode="0" d="M88 469v578q0 224 126 359.5t318 135.5q193 0 320 -135.5t127 -359.5v-578q0 -224 -127 -360t-320 -136q-192 0 -318 136t-126 360zM233 475q0 -78 19.5 -141.5t50 -103.5t70.5 -67.5t79.5 -38.5t79.5 -11q51 0 101 19t95.5 59t74 113.5t28.5 170.5v565q0 97 -28.5 170.5 t-74 113.5t-95.5 59.5t-101 19.5q-50 0 -100 -19.5t-96 -59.5t-74.5 -113.5t-28.5 -170.5v-565z" />
<glyph unicode="1" d="M231 1378v138h394v-1516h-146v1378h-248z" />
<glyph unicode="2" d="M84 0v147q85 93 420 471q57 63 91 102.5t72.5 92t58 94t33 92t13.5 103.5q0 138 -71 213.5t-185 75.5q-118 0 -191.5 -84t-82.5 -265h-150q3 247 133 381q116 119 299 119q180 0 292 -124t112 -316q0 -109 -45.5 -217t-161.5 -246q-163 -198 -440 -498h651v-141h-848z " />
<glyph unicode="3" d="M86 451h154q3 -163 88.5 -249.5t210.5 -86.5q133 0 207.5 87.5t74.5 243.5q0 146 -93 239t-251 93h-61v135h57q142 0 215.5 65.5t73.5 180.5q0 108 -57.5 175t-163.5 67q-112 0 -167.5 -67t-58.5 -179h-153q6 187 112.5 287t274.5 100q166 0 267.5 -101.5t101.5 -271.5 q0 -116 -58 -197t-172 -116q66 -20 117.5 -55t83.5 -76t53 -91t29 -98.5t8 -101.5q0 -206 -117.5 -333.5t-324.5 -127.5q-122 0 -223.5 57.5t-159.5 159.5q-62 109 -68 261z" />
<glyph unicode="4" d="M78 297v135l588 1084h157v-1082h129v-137h-129v-297h-145v297h-600zM219 434h459v866z" />
<glyph unicode="5" d="M96 444h152q13 -149 95.5 -239t195.5 -90q137 0 209.5 105t72.5 284q0 178 -77 282.5t-197 104.5q-153 0 -246 -160l-139 10l86 775h657v-132h-524l-62 -466q87 114 259 114q177 0 289 -146.5t112 -369.5q0 -246 -116.5 -394.5t-323.5 -148.5q-180 0 -301.5 122 t-141.5 349z" />
<glyph unicode="6" d="M88 492q0 139 44 247t124 224l381 553h166l-324 -467q-14 -20 -45.5 -60t-46.5 -61q79 61 182 61q82 0 155.5 -34t130 -95.5t89.5 -155t33 -204.5q0 -233 -122.5 -380t-322.5 -147q-105 0 -185.5 40.5t-133.5 103.5q-125 143 -125 375zM248 467q0 -167 82 -264t205 -97 q131 0 207.5 104t76.5 282q0 164 -75.5 264t-208.5 100q-131 0 -209 -102.5t-78 -284.5v-2z" />
<glyph unicode="7" d="M133 1378v138h807v-130l-555 -1386h-160l555 1378h-647z" />
<glyph unicode="8" d="M80 440q1 146 74 255t186 155q-85 41 -135.5 126.5t-50.5 184.5v2q0 159 109 269t269 110q161 0 270 -109t109 -272q0 -100 -51 -185t-135 -128q117 -41 187.5 -153t72.5 -255q-1 -135 -61 -242.5t-163 -166t-229 -58.5q-192 0 -320.5 131t-131.5 336zM238 438 q0 -134 85.5 -228.5t208.5 -94.5q124 0 209.5 94.5t85.5 230.5q0 133 -85.5 227.5t-209.5 94.5q-122 0 -208 -94.5t-86 -227.5v-2zM309 1143q0 -103 66.5 -174.5t161.5 -71.5q91 0 156 72t65 176q0 109 -66.5 182.5t-163.5 73.5q-90 0 -154.5 -74t-64.5 -182v-2z" />
<glyph unicode="9" d="M88 1016q0 233 123.5 379.5t323.5 146.5q105 0 185.5 -40t131.5 -103q125 -143 125 -375q0 -139 -43.5 -248t-122.5 -223l-381 -553h-168l326 467q15 22 47 62.5t45 58.5q-83 -62 -182 -62q-82 0 -156 34t-130.5 96t-90 155.5t-33.5 204.5zM246 1024q0 -164 75.5 -264.5 t208.5 -100.5q131 0 209 103t78 285v2q0 166 -82 263t-205 97q-131 0 -207.5 -103.5t-76.5 -281.5z" />
<glyph unicode=":" horiz-adv-x="526" d="M195 0v217h139v-217h-139zM195 838v217h139v-217h-139z" />
<glyph unicode=";" horiz-adv-x="526" d="M90 -170l135 387h137l-151 -387h-121zM213 838v217h141v-217h-141z" />
<glyph unicode="&#x3c;" horiz-adv-x="1099" d="M68 449v133l964 456v-141l-799 -383l799 -379v-141z" />
<glyph unicode="=" horiz-adv-x="1099" d="M68 242v129h964v-129h-964zM68 659v127h964v-127h-964z" />
<glyph unicode="&#x3e;" horiz-adv-x="1099" d="M68 -6v141l798 379l-798 383v141l964 -456v-133z" />
<glyph unicode="?" horiz-adv-x="976" d="M74 1092q0 41 2 61q8 101 47.5 178.5t98.5 122t126.5 66.5t140.5 22q167 0 287.5 -121.5t120.5 -308.5q0 -48 -13 -94.5t-29.5 -79.5t-49 -74.5t-52.5 -63t-59 -61.5q-52 -53 -81.5 -95.5t-42 -89t-15 -77.5t-2.5 -94v-8.5v-7.5h-150q2 136 9 183q22 135 123 245 q24 30 69 78t69 77t45.5 75t22.5 95q0 117 -71 196t-183 79q-46 0 -87 -13t-78 -40.5t-62 -77t-31 -115.5q-2 -18 -2 -57h-153zM403 0v219h150v-219h-150z" />
<glyph unicode="@" horiz-adv-x="1550" d="M86 750q0 222 94.5 403.5t260.5 285t370 103.5q96 0 189.5 -26.5t177.5 -80.5t147.5 -129t101 -179.5t37.5 -223.5q0 -123 -36 -226t-89 -167t-117.5 -109t-118.5 -63.5t-95 -18.5q-20 0 -39.5 5.5t-42.5 18.5t-38.5 42t-17.5 70q-18 -25 -34.5 -43.5t-44 -41t-65 -34.5 t-81.5 -12q-30 0 -61 10t-63 33t-57 57.5t-40.5 88t-15.5 118.5q0 134 52 258.5t144 203t197 78.5q79 0 129 -37.5t84 -111.5l30 121h105l-143 -537q0 -1 -5.5 -19.5t-9.5 -38.5t-4 -34q-1 -32 13 -51.5t29 -24t32 -4.5q45 0 95.5 28t98 80.5t78.5 141t31 195.5 q0 109 -30.5 201.5t-83 157.5t-123.5 111t-151 67.5t-165 21.5q-167 0 -305.5 -86t-220.5 -244.5t-82 -357.5q0 -151 47 -277.5t128.5 -212.5t192.5 -134t238 -48q149 0 279 65.5t208 206.5h111q-91 -184 -256 -280.5t-342 -96.5q-153 0 -288 60t-230 163t-150 247t-55 307z M528 641q0 -99 42 -147t102 -48q53 0 96.5 22.5t71.5 60t45 72t28 71.5q2 7 14 41t19.5 57.5t15 55t7.5 51.5q-1 88 -51 133t-109 45q-66 0 -131 -55.5t-107.5 -152t-42.5 -204.5v-2z" />
<glyph unicode="A" horiz-adv-x="1013" d="M-4 0l432 1516h152l438 -1516h-156l-129 449h-454l-125 -449h-158zM319 588h373l-186 729z" />
<glyph unicode="B" horiz-adv-x="1019" d="M137 0v1516h316q194 0 282 -76q131 -92 131 -305q0 -249 -211 -324q79 -23 137 -67.5t88 -100.5t44 -112t14 -113q0 -236 -168 -344q-96 -74 -264 -74h-369zM291 137h188q124 0 183 39q117 62 120 248q0 86 -33 153.5t-87 102.5q-62 43 -201 43h-170v-586zM291 860h168 q102 0 155 39q95 69 95 223q0 74 -27 131t-66 84q-54 41 -190 41h-135v-518z" />
<glyph unicode="C" horiz-adv-x="1134" d="M76 758q0 367 135 575.5t391 208.5q93 0 171.5 -30t133.5 -82t93 -122q40 -72 58 -152q18 -76 17 -158v-9h-151q-1 63 -11.5 119.5t-34.5 110.5t-58.5 93t-88.5 63t-121 24q-129 0 -214.5 -82t-124 -226t-38.5 -348q0 -310 103 -468t274 -158q67 0 121 22t88 58t57.5 86 t34 101.5t13.5 109.5h151q0 -101 -30 -192.5t-86.5 -166t-149 -118.5t-207.5 -44q-247 0 -386.5 203t-139.5 582z" />
<glyph unicode="D" horiz-adv-x="1191" d="M137 0v1516h348q345 0 496 -220q133 -195 133 -538q0 -169 -32.5 -301t-88.5 -217t-136.5 -140t-170.5 -77.5t-197 -22.5h-352zM291 141h186q257 0 369 156t112 461q0 320 -106 463q-110 153 -379 153h-182v-1233z" />
<glyph unicode="E" horiz-adv-x="972" d="M143 0v1516h711v-142h-557v-528h557v-141h-557v-564h557v-141h-711z" />
<glyph unicode="F" horiz-adv-x="866" d="M135 0v1516h653v-142h-499v-528h499v-139h-499v-707h-154z" />
<glyph unicode="G" horiz-adv-x="1253" d="M76 758q0 355 154.5 569.5t416.5 214.5q115 0 208.5 -42t154 -115.5t95 -167.5t40.5 -203h-154q-4 128 -67 233q-94 156 -277 156q-190 0 -302 -167t-112 -478q0 -324 113.5 -484.5t300.5 -160.5q207 0 297 178q66 133 66 344h-426v139h583q0 -149 -4 -223 q-3 -82 -21 -159.5t-58 -155t-97 -135t-144.5 -93t-195.5 -35.5q-143 0 -253 58.5t-179 164.5t-104 248t-35 314z" />
<glyph unicode="H" horiz-adv-x="1122" d="M137 0v1516h154v-670h538v670h156v-1516h-156v705h-538v-705h-154z" />
<glyph unicode="I" horiz-adv-x="430" d="M137 0v1516h154v-1516h-154z" />
<glyph unicode="J" horiz-adv-x="874" d="M10 358h150l6 -30q39 -215 217 -215q62 3 106 39t66 88q29 67 29 198v1078h153v-1098q0 -142 -32 -230q-44 -96 -121 -149q-86 -66 -207 -66q-143 0 -243 85t-120 241q-4 36 -4 59z" />
<glyph unicode="K" horiz-adv-x="950" d="M137 0v1516h154v-734l475 734h174l-498 -750l537 -766h-182l-506 731v-731h-154z" />
<glyph unicode="L" horiz-adv-x="813" d="M143 0v1516h154v-1375h483v-141h-637z" />
<glyph unicode="M" horiz-adv-x="1447" d="M141 0v1516h238l356 -1293l332 1293h240v-1516h-140v1374l-358 -1374h-143l-385 1374v-1374h-140z" />
<glyph unicode="N" horiz-adv-x="1220" d="M141 0v1516h185l614 -1264v1264h139v-1516h-172l-626 1294v-1294h-140z" />
<glyph unicode="O" horiz-adv-x="1255" d="M76 758v2q0 225 61 399.5t187.5 278.5t302.5 104q177 0 303.5 -104t187 -278.5t60.5 -401.5q0 -120 -19 -231t-61.5 -213t-105 -177t-156.5 -119.5t-209 -44.5q-107 0 -196.5 39t-154.5 109t-110 168t-67.5 216.5t-22.5 252.5zM233 756q0 -308 104.5 -475.5t289.5 -167.5 t290 168t105 477t-105 477t-290 168t-289.5 -168t-104.5 -477v-2z" />
<glyph unicode="P" horiz-adv-x="1001" d="M143 0v1516h287q133 0 220.5 -23.5t158.5 -81.5q67 -55 107 -148.5t40 -199.5q0 -109 -40 -202t-107 -148q-71 -57 -159 -81t-220 -24h-133v-608h-154zM297 750h133q108 0 167.5 14t111.5 57q41 32 66.5 98t25.5 142q0 77 -26 143.5t-68 100.5q-48 40 -108.5 54.5 t-168.5 14.5h-133v-624z" />
<glyph unicode="Q" horiz-adv-x="1263" d="M76 758q0 226 61 401t187.5 279t302.5 104q177 0 303.5 -104t187 -278.5t60.5 -401.5q0 -181 -42.5 -330.5t-113.5 -241.5q57 -71 150 -71q14 0 30 2v-142q-14 -2 -45 -2q-69 0 -124 23.5t-105 81.5q-54 -45 -134.5 -75t-166.5 -30q-107 0 -196.5 39t-154.5 109t-110 168 t-67.5 216.5t-22.5 252.5zM233 758q0 -161 37 -281q121 80 248 80q111 0 215 -74q95 -73 178 -182q42 55 76.5 178t34.5 279q0 308 -105 476.5t-290 168.5h-2q-183 0 -287.5 -168.5t-104.5 -476.5zM297 352q108 -239 330 -239h2q126 0 213 82q-71 95 -144 155 q-94 74 -204 74t-197 -72z" />
<glyph unicode="R" horiz-adv-x="1028" d="M137 0v1516h289q156 0 241.5 -24t133.5 -67q157 -128 157 -366q0 -167 -67 -275q-94 -150 -262 -174l303 -610h-172l-338 705q35 0 53 2q154 3 238 81q88 85 88 256q0 192 -115 279q-31 23 -79.5 35t-86.5 14t-98 2h-131v-1374h-154z" />
<glyph unicode="S" horiz-adv-x="1011" d="M74 418h149q6 -84 33.5 -147t67.5 -96.5t83 -49.5t89 -16q125 0 205.5 79t80.5 215q0 61 -21 110.5t-46 78.5t-77.5 57t-81 38.5t-91.5 30.5q-5 2 -7.5 2.5t-6.5 2t-7 2.5q-38 13 -60.5 21.5t-63.5 28t-67 38.5t-58.5 50.5t-51 66t-32 83.5t-13.5 109q0 194 110 308 t290 114q355 0 405 -385h-147q-6 48 -20 88.5t-41.5 80t-77 62.5t-115.5 23q-114 0 -181 -74t-67 -194q0 -71 22 -120.5t81 -86t99 -52.5t139 -48q3 -1 5 -2q34 -12 56.5 -21t61 -28.5t65 -40t58.5 -54t51 -72t32.5 -92.5t13.5 -116q0 -197 -125 -318t-313 -121 q-186 0 -303 113.5t-123 331.5z" />
<glyph unicode="T" horiz-adv-x="843" d="M39 1374v142h768v-142h-307v-1374h-154v1374h-307z" />
<glyph unicode="U" horiz-adv-x="1132" d="M131 399v1117h154v-1106q0 -75 15.5 -130.5t59.5 -97.5q67 -67 205 -67q137 0 207 67q44 42 60 97.5t16 130.5v1106h153v-1117q0 -107 -25.5 -181.5t-80.5 -129.5q-112 -115 -328 -115t-331 115q-105 108 -105 311z" />
<glyph unicode="V" horiz-adv-x="1032" d="M4 1516h156l358 -1303l361 1303h149l-438 -1516h-148z" />
<glyph unicode="W" horiz-adv-x="1603" d="M6 1516h152l297 -1285l272 1285h156l272 -1285l293 1285h149l-360 -1516h-160l-276 1305l-271 -1305h-159z" />
<glyph unicode="X" horiz-adv-x="946" d="M8 0l383 807l-336 709h160l258 -576l258 576h162l-338 -709l381 -807h-162l-301 668l-303 -668h-162z" />
<glyph unicode="Y" horiz-adv-x="919" d="M-6 1516h160l307 -818l305 818h160l-389 -965v-551h-154v551z" />
<glyph unicode="Z" horiz-adv-x="995" d="M70 0v123l661 1251h-661v142h841v-130l-663 -1245h688v-141h-866z" />
<glyph unicode="[" horiz-adv-x="679" d="M172 -483v1999h416v-117h-287v-1766h287v-116h-416z" />
<glyph unicode="\" horiz-adv-x="569" d="M-96 1524h135l627 -1663h-136z" />
<glyph unicode="]" horiz-adv-x="679" d="M92 -367h287v1766h-287v117h416v-1999h-416v116z" />
<glyph unicode="^" horiz-adv-x="1099" d="M135 780l346 736h135l349 -736h-138l-278 602l-279 -602h-135z" />
<glyph unicode="_" horiz-adv-x="1024" d="M0 -154h1024v-102h-1024v102z" />
<glyph unicode="`" horiz-adv-x="856" d="M141 1464l58 111l452 -258l-53 -96z" />
<glyph unicode="a" horiz-adv-x="1003" d="M76 555q0 262 100.5 424t272.5 162q214 0 294 -242q-2 68 -2 215h127v-1114h-127q0 160 2 213q-37 -115 -113 -177.5t-181 -62.5q-166 0 -269.5 161t-103.5 421zM213 555q0 -196 68.5 -321t191.5 -125t195 122q63 105 63 326q0 224 -63 326q-73 123 -195 123 q-83 0 -142.5 -60t-88.5 -160t-29 -229v-2z" />
<glyph unicode="b" horiz-adv-x="1003" d="M135 0v1516h137v-402q0 -160 -4 -213q31 110 106 175t179 65q174 0 274.5 -161t100.5 -421q0 -265 -103.5 -425.5t-271.5 -160.5q-209 0 -293 242q2 -68 2 -215h-127zM272 557q0 -88 14 -165t43 -142t81 -103t122 -38q84 0 144 62.5t87.5 162t27.5 223.5v2 q0 123 -27.5 222.5t-87.5 162t-144 62.5q-69 0 -121.5 -38t-81.5 -103.5t-43 -142.5t-14 -165z" />
<glyph unicode="c" horiz-adv-x="911" d="M70 555q0 271 116.5 428.5t307.5 157.5q167 0 263.5 -114.5t104.5 -297.5h-139q-16 153 -80.5 218t-153.5 65q-135 0 -202 -119q-72 -129 -72 -336q0 -219 72.5 -337t204.5 -118q100 0 159.5 74t75.5 203h141q-20 -180 -114.5 -293t-253.5 -113q-108 0 -192 48t-135 130 t-77 184.5t-26 219.5z" />
<glyph unicode="d" horiz-adv-x="1003" d="M76 555q0 262 100.5 424t272.5 162q205 0 286 -236q-4 66 -4 209v402h137v-1516h-127q0 164 2 221q-29 -115 -108.5 -181.5t-185.5 -66.5q-166 0 -269.5 161t-103.5 421zM213 557q0 -196 68.5 -321t191.5 -125t195 122q63 105 63 326t-63 326q-74 121 -195 121 q-83 0 -142.5 -59.5t-88.5 -159t-29 -228.5v-2z" />
<glyph unicode="e" horiz-adv-x="978" d="M80 555q0 263 114 424.5t308 161.5q193 0 299 -158q102 -150 102 -445v-22h-680q0 -181 73.5 -297.5t209.5 -116.5q98 0 162.5 60.5t87.5 161.5h135q-29 -168 -139 -263q-105 -88 -246 -88q-111 0 -195.5 50t-133.5 134.5t-73 185t-24 212.5zM223 637h541 q-3 177 -73.5 282t-194.5 105q-120 0 -195 -109.5t-78 -277.5z" />
<glyph unicode="f" horiz-adv-x="512" d="M39 985v129h125v84q0 69 15.5 124t38 90.5t56 61t62.5 38.5t64.5 20t55 8.5t40.5 1.5v-121q-195 -11 -195 -235v-72h195v-129h-195v-985h-137v985h-125z" />
<glyph unicode="g" horiz-adv-x="1003" d="M76 555q0 264 98.5 425t274.5 161q103 0 177.5 -56t123.5 -186q-2 68 -2 215h120v-1094q0 -222 -94 -333q-105 -123 -299 -123q-43 0 -88.5 10t-96 36t-90 64t-67.5 100.5t-33 139.5h140q11 -102 63 -156q67 -67 178 -67q252 0 252 319q0 125 2 199 q-31 -111 -105.5 -173.5t-180.5 -62.5q-176 0 -274.5 160.5t-98.5 421.5zM213 555q0 -196 68.5 -321t191.5 -125t195 122q63 105 63 326q0 224 -63 326q-73 123 -195 123q-83 0 -142.5 -60t-88.5 -160t-29 -229v-2z" />
<glyph unicode="h" horiz-adv-x="1017" d="M135 0v1516h137v-394q0 -116 -4 -184q34 103 112.5 153t186.5 50q156 0 240 -101q82 -94 82 -307v-733h-137v692q0 88 -11 143.5t-41 98.5q-50 72 -161 72q-125 0 -197 -91q-37 -48 -53.5 -110t-16.5 -172v-633h-137z" />
<glyph unicode="i" horiz-adv-x="440" d="M152 0v1114h137v-1114h-137zM152 1315v201h137v-201h-137z" />
<glyph unicode="j" horiz-adv-x="434" d="M0 -287q3 1 9.5 2t8.5 2q75 18 101 86.5t26 198.5v1112h138v-1128q0 -364 -234 -402q-32 -4 -49 -4v133zM145 1313v203h138v-203h-138z" />
<glyph unicode="k" horiz-adv-x="806" d="M129 0v1516h137v-879l359 477h155l-385 -496l412 -618h-154l-387 575v-575h-137z" />
<glyph unicode="l" horiz-adv-x="440" d="M152 0v1516h137v-1516h-137z" />
<glyph unicode="m" horiz-adv-x="1546" d="M139 0v1114h131q0 -116 -4 -182q68 209 283 209q118 0 194 -76q49 -53 62 -133q28 87 92 141q91 68 205 68q92 0 157.5 -40t102.5 -104q51 -85 51 -305v-692h-137v682q0 142 -23 207q-18 56 -64 86.5t-106 30.5q-115 0 -180 -91q-59 -85 -59 -243v-672h-137v676 q0 141 -23 213q-17 55 -63 86t-105 31q-114 0 -180 -86q-60 -86 -60 -252v-668h-137z" />
<glyph unicode="n" horiz-adv-x="1017" d="M135 0v1114h123q0 -120 -4 -190q40 112 125 164.5t190 52.5q150 0 235 -93t85 -288v-760h-137v717q0 41 -3 74t-15.5 75.5t-34 71t-63 48.5t-97.5 20q-125 0 -196 -88t-71 -259v-659h-137z" />
<glyph unicode="o" horiz-adv-x="1009" d="M76 557v2q0 97 16 182.5t49.5 159t83.5 127t121.5 83.5t159.5 30q108 0 191.5 -46t134.5 -127t76.5 -185t25.5 -226t-25.5 -226t-76.5 -185t-134.5 -127t-191.5 -46q-109 0 -193 46t-135 127t-76.5 185t-25.5 226zM219 555q0 -223 72.5 -338t216.5 -115q139 0 211 116 t72 339q0 224 -72.5 339.5t-214.5 115.5q-141 0 -213 -116t-72 -339v-2z" />
<glyph unicode="p" horiz-adv-x="1003" d="M135 -412v1526h127q0 -145 -2 -213q81 240 293 240q168 0 271.5 -160.5t103.5 -425.5q0 -260 -100.5 -421t-274.5 -161q-99 0 -175 62.5t-110 167.5q4 -49 4 -203v-412h-137zM272 557q0 -218 68 -326q69 -122 190 -122q125 0 193 125t68 323v2q0 128 -29 227.5 t-88.5 159.5t-143.5 60q-120 0 -190 -123q-68 -105 -68 -326z" />
<glyph unicode="q" horiz-adv-x="1003" d="M76 555q0 264 103 425t270 161q103 0 179 -59t111 -181q-2 68 -2 213h131v-1526h-137v412q0 156 4 209q-35 -113 -110 -174.5t-176 -61.5q-172 0 -272.5 161.5t-100.5 420.5zM213 555q0 -196 68.5 -321t191.5 -125t195 122q63 105 63 326q0 224 -63 326q-73 123 -195 123 q-83 0 -142.5 -60t-88.5 -160t-29 -229v-2z" />
<glyph unicode="r" horiz-adv-x="567" d="M135 0v1114h127q0 -165 -4 -233q63 250 297 260v-160q-22 14 -51 14q-37 0 -76 -23.5t-75 -69t-58.5 -125t-22.5 -179.5v-598h-137z" />
<glyph unicode="s" horiz-adv-x="825" d="M68 328h135q1 -111 59.5 -169.5t153.5 -58.5q89 0 138.5 54t49.5 141q0 94 -59.5 145t-184.5 90q-59 20 -101.5 42.5t-81.5 58.5t-59 90.5t-20 126.5q0 132 87 212.5t225 80.5q144 0 224.5 -81t84.5 -235h-135q0 193 -181 193q-71 0 -116 -46.5t-45 -119.5q0 -45 17 -79 t53 -58.5t73.5 -40t95.5 -33.5q42 -13 75.5 -28t71 -42t62.5 -61.5t41.5 -87.5t16.5 -117q0 -147 -94 -239.5t-238 -92.5q-155 0 -248 91.5t-100 263.5z" />
<glyph unicode="t" horiz-adv-x="512" d="M33 985v129h155v352h138v-352h153v-129h-153v-985h-138v985h-155z" />
<glyph unicode="u" horiz-adv-x="1017" d="M129 354v760h137v-717q0 -41 3 -74t15.5 -75.5t34 -70.5t63 -48t97.5 -20q125 0 195.5 87.5t70.5 258.5v659h138v-1114h-127q0 125 4 195q-39 -113 -122.5 -167.5t-188.5 -54.5q-150 0 -235 93t-85 288z" />
<glyph unicode="v" horiz-adv-x="800" d="M2 1114h139l265 -930l256 930h137l-324 -1114h-137z" />
<glyph unicode="w" horiz-adv-x="1273" d="M6 1114h141l228 -915l200 817h125l201 -817l225 915h140l-299 -1114h-136l-192 813l-197 -813h-137z" />
<glyph unicode="x" horiz-adv-x="784" d="M10 0l299 567l-286 547h155l213 -438l215 438h154l-289 -547l303 -567h-158l-225 457l-225 -457h-156z" />
<glyph unicode="y" horiz-adv-x="817" d="M12 1114h144l247 -887l263 887h141l-479 -1526h-138l144 439z" />
<glyph unicode="z" horiz-adv-x="813" d="M41 0v127l534 858h-499v129h663v-131l-532 -854h551v-129h-717z" />
<glyph unicode="{" horiz-adv-x="679" d="M76 444v113q65 11 105 92t40 203v403q0 131 48 196t159 65h137v-113h-90q-73 0 -98 -39.5t-25 -155.5v-385q-1 -110 -53.5 -199t-116.5 -124q74 -25 121.5 -104.5t48.5 -207.5v-385q0 -121 25 -158.5t98 -37.5h90v-113h-137q-111 0 -159 66t-48 198v398q0 118 -32.5 188 t-112.5 100z" />
<glyph unicode="|" horiz-adv-x="813" d="M342 -512v2048h131v-2048h-131z" />
<glyph unicode="}" horiz-adv-x="679" d="M115 -393h90q74 0 99.5 39.5t25.5 154.5v387q0 109 52 198t116 124q-74 25 -121 104.5t-47 208.5v383q0 120 -25.5 158.5t-99.5 38.5h-90v113h137q110 0 158.5 -66.5t48.5 -198.5v-397q0 -116 33.5 -188t113.5 -101v-110q-66 -11 -106.5 -92.5t-40.5 -204.5v-402 q0 -132 -48 -197t-159 -65h-137v113z" />
<glyph unicode="~" horiz-adv-x="1099" d="M127 496q39 72 98.5 114t132.5 39q34 0 76.5 -12.5t66 -22.5t74.5 -34q10 -4 35 -16t35.5 -17t31 -13t33 -12t28 -7t28.5 -3q50 0 85.5 33.5t70.5 91.5l51 -102q-84 -154 -207 -154q-30 0 -66 10t-62 21t-68 30q-10 5 -15 7q-48 23 -73.5 34.5t-61.5 23t-62 11.5 q-108 3 -180 -125z" />
<glyph unicode="&#xa1;" horiz-adv-x="507" d="M178 -406v1151h152v-1151h-152zM178 895v219h152v-219h-152z" />
<glyph unicode="&#xa2;" d="M119 741q0 119 19.5 217.5t61.5 178.5t114.5 130t170.5 62v195h125v-195q84 -7 146.5 -44.5t99 -98t55 -130t23.5 -153.5h-146q-5 59 -19 108t-40 93t-72 69t-108 25q-139 0 -208 -115.5t-69 -332.5q0 -449 281 -449q114 0 176.5 83t67.5 206h145q-3 -176 -94.5 -296 t-237.5 -126v-195h-125v195q-84 5 -150 45.5t-105.5 99.5t-65.5 136.5t-35.5 148.5t-9.5 143z" />
<glyph unicode="&#xa3;" d="M39 713v135h133q-61 96 -61 254q0 186 119.5 313t308.5 127q164 0 281 -109t141 -298h-154q-25 115 -103 185.5t-178 70.5q-115 -1 -189 -84t-77 -209q0 -151 72 -250h405v-135h-340q5 -6 14 -18q45 -57 66 -88t40.5 -83.5t19.5 -107.5q0 -79 -20 -138.5t-64 -130.5h122 q141 0 216 72q71 68 71 207q0 44 -8 94h152q10 -83 10 -112q0 -196 -113 -306q-108 -102 -297 -102h-518v147h209q86 128 86 265q0 68 -34 132t-111 169h-199z" />
<glyph unicode="&#xa4;" d="M10 1153l92 90l166 -166q108 90 264 90q79 0 149 -24t116 -66l166 166l94 -90l-166 -168q41 -47 64.5 -115.5t23.5 -146.5q0 -79 -24.5 -148.5t-67.5 -115.5l166 -168l-92 -90l-164 164q-111 -86 -265 -86q-75 0 -144.5 24t-117.5 62l-166 -164l-90 90l166 168 q-44 48 -69 117.5t-25 146.5t25 146t67 116zM221 721q0 -127 93 -218t218 -91q127 0 220.5 91.5t93.5 219.5q0 130 -93 220.5t-221 90.5q-126 0 -218.5 -91t-92.5 -220v-2z" />
<glyph unicode="&#xa5;" d="M66 1516h161l308 -664l303 664h161l-301 -607h273v-135h-336l-29 -57v-119h365v-135h-365v-463h-145v463h-365v135h365v119l-29 57h-336v135h273z" />
<glyph unicode="&#xa6;" horiz-adv-x="813" d="M342 358h131v-716h-131v716zM342 666v716h131v-716h-131z" />
<glyph unicode="&#xa7;" horiz-adv-x="1024" d="M143 774q0 88 49 159.5t134 106.5q-95 102 -95 230q0 116 78.5 194t220.5 78q262 0 281 -305h-104q-18 199 -177 199q-85 0 -130.5 -44.5t-45.5 -117.5q0 -135 129 -225l234 -181q33 -25 56 -46.5t51 -56t42.5 -78.5t14.5 -95q0 -85 -45 -160.5t-123 -116.5 q102 -99 102 -256q0 -121 -80.5 -205.5t-212.5 -84.5q-144 0 -224.5 92.5t-88.5 238.5h106q2 -42 14 -79.5t34.5 -71.5t62 -54t92.5 -20q78 0 124 51.5t48 132.5q3 65 -38.5 134t-127.5 131l-229 176q-152 103 -152 274zM264 786q0 -59 28.5 -113t106.5 -106l248 -184 q53 32 82 83t29 112v2q0 69 -38 117t-118 108l-221 168q-51 -23 -84 -76.5t-33 -110.5z" />
<glyph unicode="&#xa8;" horiz-adv-x="532" d="M47 1264v233h133v-233h-133zM352 1264v233h133v-233h-133z" />
<glyph unicode="&#xa9;" horiz-adv-x="1638" d="M37 758q0 211 101 390t281.5 285.5t401.5 106.5h2q216 0 395.5 -105.5t281.5 -285t102 -391.5q0 -162 -62 -307.5t-167 -249.5t-250 -165t-304 -61q-161 0 -305.5 60.5t-249 164.5t-166 249.5t-61.5 308.5zM135 758q0 -189 91 -348t248 -250.5t345 -91.5q140 0 266 53.5 t217.5 145t145 220t53.5 271.5q0 186 -87.5 344t-244.5 252t-348 94h-2q-144 0 -272 -55t-218 -148.5t-142 -220t-52 -266.5zM403 754q0 203 121 333t316 130q149 0 255 -85.5t126 -226.5h-105q-22 107 -100.5 157t-177.5 50q-137 0 -225.5 -94.5t-88.5 -261.5 q0 -92 27 -163t73 -112t99.5 -61.5t112.5 -20.5q28 0 57.5 4.5t70.5 20.5t72.5 42t57 75.5t32.5 115.5h109q-17 -169 -130 -265.5t-269 -96.5q-86 0 -163.5 30.5t-138 87t-96 145t-35.5 196.5z" />
<glyph unicode="&#xaa;" horiz-adv-x="614" d="M20 1192q0 157 65.5 253.5t178.5 96.5q142 0 193 -153q-2 51 -2 139h100v-670h-100q0 96 2 137q-53 -151 -193 -151q-109 0 -176.5 96t-67.5 252zM127 1190q0 -65 14.5 -118.5t51 -91.5t90.5 -38q60 0 97 44.5t48 113.5q6 52 6 98q0 51 -8 92q-13 68 -51 110t-99 42 q-70 0 -109.5 -71.5t-39.5 -178.5v-2z" />
<glyph unicode="&#xab;" horiz-adv-x="788" d="M78 571l221 390h133l-221 -390l221 -385h-133zM358 571l222 390h133l-221 -390l221 -385h-133z" />
<glyph unicode="&#xac;" horiz-adv-x="1099" d="M68 659v127h964v-544h-129v417h-835z" />
<glyph unicode="&#xad;" horiz-adv-x="536" d="M51 504v137h434v-137h-434z" />
<glyph unicode="&#xae;" horiz-adv-x="1638" d="M37 758q0 211 101 390t281.5 285.5t401.5 106.5h2q216 0 395.5 -105.5t281.5 -285t102 -391.5q0 -162 -62 -307.5t-167 -249.5t-250 -165t-304 -61q-161 0 -305.5 60.5t-249 164.5t-166 249.5t-61.5 308.5zM135 758q0 -189 91 -348t248 -250.5t345 -91.5q140 0 266 53.5 t217.5 145t145 220t53.5 271.5q0 186 -87.5 344t-244.5 252t-348 94h-2q-144 0 -272 -55t-218 -148.5t-142 -220t-52 -266.5zM483 311v893h375q36 0 70.5 -4t81.5 -19t81 -39.5t58.5 -71.5t24.5 -109q0 -155 -164 -220q76 -23 108 -71t37 -133q9 -134 13.5 -166.5 t17.5 -59.5h-117q-16 28 -25 205q-2 30 -5 47.5t-11 41.5t-23 37.5t-39 26.5t-62 19t-89 6h-215v-383h-117zM600 780h219l20 1q20 1 27 2t29 4t33 6.5t31 10.5t31 15.5t26 21.5t22.5 29t13 37.5t5.5 46.5q0 39 -11.5 68t-33 46t-42 27.5t-50.5 14.5t-45 5t-37 1h-238v-336z " />
<glyph unicode="&#xaf;" horiz-adv-x="856" d="M72 1325v105h712v-105h-712z" />
<glyph unicode="&#xb0;" horiz-adv-x="819" d="M113 1188q0 124 86.5 210.5t210.5 86.5t210.5 -86.5t86.5 -210.5v-2q0 -123 -86.5 -209t-210.5 -86t-210.5 86.5t-86.5 210.5zM197 1186q0 -90 61.5 -152.5t151.5 -62.5t151.5 63t61.5 154t-61.5 154t-151.5 63t-151.5 -63t-61.5 -154v-2z" />
<glyph unicode="&#xb1;" horiz-adv-x="1099" d="M68 0v129h964v-129h-964zM68 565v129h417v342h129v-342h418v-129h-418v-342h-129v342h-417z" />
<glyph unicode="&#xb2;" horiz-adv-x="704" d="M63 614v101q146 148 334 348q55 61 75 102.5t20 91.5q0 71 -37 120.5t-113 49.5q-69 0 -112.5 -52.5t-43.5 -147.5h-116q0 108 43 180q37 63 98.5 94t134.5 31q122 0 195 -76t73 -203q0 -67 -28 -122.5t-86 -120.5q-49 -54 -152.5 -159.5t-126.5 -129.5h395v-107h-553z " />
<glyph unicode="&#xb3;" horiz-adv-x="704" d="M55 891h115q1 -96 52.5 -144.5t119.5 -48.5q79 0 123.5 51t44.5 130q0 77 -47.5 134.5t-140.5 57.5h-60v92h55q36 0 63.5 10.5t42.5 25t24 34.5t11.5 35t2.5 30q0 55 -31.5 94t-87.5 40q-57 1 -91 -37t-36 -101h-115q3 116 74.5 177t171.5 61t168 -62t68 -161 q0 -129 -115 -185q73 -24 117.5 -89t44.5 -156q0 -121 -79 -201t-204 -80q-79 0 -143.5 31.5t-100.5 91.5q-47 68 -47 170z" />
<glyph unicode="&#xb4;" horiz-adv-x="856" d="M207 1317l452 258l56 -111l-457 -243z" />
<glyph unicode="&#xb5;" horiz-adv-x="1024" d="M135 -371v1485h137v-692q0 -91 11.5 -147.5t42.5 -98.5q50 -67 155 -67q35 0 61 4t67.5 25.5t72.5 62.5q37 48 53.5 111.5t16.5 176.5v625h137v-1114h-127q0 57 4 201q-33 -109 -116 -168.5t-191 -59.5q-65 0 -118.5 28t-72.5 83q4 -118 4 -145v-310h-137z" />
<glyph unicode="&#xb6;" horiz-adv-x="1114" d="M39 1120q0 196 128 296t339 100h575v-105h-112v-1622h-133v1620h-205v-1620h-133v942q-136 0 -237.5 40.5t-161.5 129.5t-60 219z" />
<glyph unicode="&#xb7;" horiz-adv-x="526" d="M184 408v227h158v-227h-158z" />
<glyph unicode="&#xb8;" horiz-adv-x="442" d="M33 -336l49 37q16 -33 53 -46t70 -13q39 0 67 25t29 65q-1 38 -27.5 62t-62.5 24q-49 0 -88 -39l-45 20l106 201h78l-65 -123q1 0 17 4t26 4q71 0 116 -43t45 -106q0 -72 -53 -122t-131 -50q-138 0 -184 100z" />
<glyph unicode="&#xb9;" horiz-adv-x="575" d="M98 1415v101h267v-902h-115v801h-152z" />
<glyph unicode="&#xba;" horiz-adv-x="614" d="M27 1192v2q0 153 70 250.5t210 97.5t210.5 -97.5t70.5 -252.5q0 -153 -70.5 -251.5t-210.5 -98.5t-210 98.5t-70 251.5zM135 1190q0 -125 44 -189.5t128 -64.5q172 0 172 256q0 133 -42 195t-132 61q-87 1 -128.5 -61.5t-41.5 -194.5v-2z" />
<glyph unicode="&#xbb;" horiz-adv-x="788" d="M76 186l221 383l-221 389h133l221 -389l-221 -383h-133zM356 186l224 383l-224 389h133l222 -389l-222 -383h-133z" />
<glyph unicode="&#xbc;" horiz-adv-x="1470" d="M127 1415v101h266v-902h-117v801h-149zM274 -8l703 1532h125l-705 -1532h-123zM774 172v92l389 637h119v-629h88v-100h-88v-172h-111v172h-397zM893 272h278v469z" />
<glyph unicode="&#xbd;" horiz-adv-x="1533" d="M127 1415v101h266v-902h-117v801h-149zM254 -8l702 1532h125l-704 -1532h-123zM874 0v100q215 222 332 351q56 59 76.5 100.5t20.5 93.5q0 69 -37 118.5t-113 49.5q-69 0 -112.5 -53t-43.5 -148h-116q0 108 43 183q37 62 98.5 92.5t134.5 30.5q122 0 195 -76t73 -203 q0 -67 -28 -123t-86 -119q-48 -53 -150 -156t-129 -132h393v-109h-551z" />
<glyph unicode="&#xbe;" horiz-adv-x="1599" d="M68 891h114q3 -97 53.5 -145t118.5 -48q79 0 123.5 51t44.5 130q0 77 -47.5 134.5t-140.5 57.5h-60v92h56q45 0 75.5 14.5t44 38t18.5 43t5 39.5q0 55 -31.5 94t-87.5 40q-57 1 -91 -37t-36 -101h-114q3 116 74 177t171 61t168 -62t68 -161q0 -129 -115 -185 q73 -24 117.5 -89t44.5 -156q0 -121 -79 -201t-204 -80q-79 0 -143 31.5t-100 91.5q-47 68 -47 170zM416 -8l702 1532h125l-704 -1532h-123zM903 172v92l389 637h121v-629h86v-100h-86v-172h-113v172h-397zM1022 272h278v469z" />
<glyph unicode="&#xbf;" horiz-adv-x="976" d="M80 2q0 59 16.5 112t51.5 102.5t62 80t75 78.5q41 42 68 80.5t41.5 66t21 67.5t7.5 63.5t1 74.5v21h149q0 -7 -0.5 -42t-0.5 -44t-1.5 -40.5t-4 -43.5t-7.5 -40.5t-11 -44t-16 -41t-22 -45t-29 -43t-37 -45.5q-24 -29 -70 -78t-69.5 -77.5t-44.5 -74.5t-22 -95 q0 -117 70 -196t181 -79q46 0 88 13t79 40.5t61.5 77t30.5 115.5q4 36 4 58h153q0 -22 -4 -62q-7 -82 -34.5 -148t-67.5 -110t-92.5 -73.5t-107 -42.5t-112.5 -13q-167 0 -287 120.5t-120 307.5zM424 895v219h149v-219h-149z" />
<glyph unicode="&#xc0;" horiz-adv-x="1013" d="M-4 0l432 1516h152l438 -1516h-156l-129 449h-454l-125 -449h-158zM215 1829l55 110l453 -258l-51 -96zM319 588h373l-186 729z" />
<glyph unicode="&#xc1;" horiz-adv-x="1013" d="M-4 0l432 1516h152l438 -1516h-156l-129 449h-454l-125 -449h-158zM293 1681l452 258l56 -110l-457 -244zM319 588h373l-186 729z" />
<glyph unicode="&#xc2;" horiz-adv-x="1013" d="M-4 0l432 1516h152l438 -1516h-156l-129 449h-454l-125 -449h-158zM154 1628l286 252h133l287 -252h-143l-209 174l-211 -174h-143zM319 588h373l-186 729z" />
<glyph unicode="&#xc3;" horiz-adv-x="1013" d="M-4 0l432 1516h152l438 -1516h-156l-129 449h-454l-125 -449h-158zM133 1733q26 34 80.5 61t108.5 27q95 0 188 -27q84 -31 160 -31q81 0 145 58l59 -84q-78 -82 -190 -82q-101 0 -178 26q-99 31 -160 31q-90 0 -149 -63zM319 588h373l-186 729z" />
<glyph unicode="&#xc4;" horiz-adv-x="1013" d="M-4 0l432 1516h152l438 -1516h-156l-129 449h-454l-125 -449h-158zM289 1626v236h133v-236h-133zM319 588h373l-186 729zM594 1626v236h131v-236h-131z" />
<glyph unicode="&#xc5;" horiz-adv-x="1013" d="M-4 0l432 1516h152l438 -1516h-156l-129 449h-454l-125 -449h-158zM303 1772q0 84 59.5 143t143.5 59h2q84 0 143.5 -59t59.5 -143q0 -85 -59.5 -145t-145.5 -60q-85 0 -144 60t-59 145zM319 588h373l-186 729zM387 1772q0 -50 34 -84.5t85 -34.5q52 0 86.5 34.5 t34.5 84.5q0 51 -34.5 85.5t-86.5 34.5h-2q-50 0 -83.5 -34.5t-33.5 -85.5z" />
<glyph unicode="&#xc6;" horiz-adv-x="1679" d="M-16 0l751 1516h815v-142h-583v-528h583v-141h-583v-564h583v-141h-737v436h-448l-211 -436h-170zM428 578h385v804z" />
<glyph unicode="&#xc7;" horiz-adv-x="1126" d="M68 758q0 365 134.5 574.5t385.5 209.5q116 0 209 -46t151 -124t88.5 -176t30.5 -207h-154q-1 61 -11 117.5t-34 110.5t-59 94t-89.5 64t-121.5 24q-190 0 -281.5 -172.5t-91.5 -483.5t102.5 -468.5t274.5 -157.5q67 0 120 22.5t87 58.5t57.5 86.5t33.5 101.5t13 108h154 q0 -97 -27.5 -186t-80 -161t-136 -118.5t-186.5 -53.5l-43 -98q20 8 43 8q63 0 104 -42t41 -107q0 -73 -50 -122.5t-130 -49.5q-134 0 -176 102l51 37q26 -61 109 -61q40 0 68.5 24.5t29.5 65.5q-1 38 -25 62t-57 24q-48 0 -72 -37l-57 18l84 176q-226 12 -357.5 215.5 t-131.5 567.5z" />
<glyph unicode="&#xc8;" horiz-adv-x="972" d="M143 0v1516h711v-142h-557v-528h557v-141h-557v-564h557v-141h-711zM201 1835l55 111l453 -258l-52 -97z" />
<glyph unicode="&#xc9;" horiz-adv-x="972" d="M143 0v1516h711v-142h-557v-528h557v-141h-557v-564h557v-141h-711zM264 1688l453 258l57 -111l-457 -244z" />
<glyph unicode="&#xca;" horiz-adv-x="972" d="M131 1634l289 252h133l287 -252h-146l-209 174l-209 -174h-145zM143 0v1516h711v-142h-557v-528h557v-141h-557v-564h557v-141h-711z" />
<glyph unicode="&#xcb;" horiz-adv-x="972" d="M143 0v1516h711v-142h-557v-528h557v-141h-557v-564h557v-141h-711zM268 1634v234h131v-234h-131zM571 1634v234h134v-234h-134z" />
<glyph unicode="&#xcc;" horiz-adv-x="430" d="M-78 1829l58 110l450 -258l-51 -96zM137 0v1516h154v-1516h-154z" />
<glyph unicode="&#xcd;" horiz-adv-x="430" d="M0 1681l453 258l55 -110l-457 -244zM137 0v1516h154v-1516h-154z" />
<glyph unicode="&#xce;" horiz-adv-x="430" d="M-139 1628l286 252h134l288 -252h-145l-209 174l-211 -174h-143zM137 0v1516h154v-1516h-154z" />
<glyph unicode="&#xcf;" horiz-adv-x="430" d="M-4 1634v234h133v-234h-133zM137 0v1516h154v-1516h-154zM301 1634v234h133v-234h-133z" />
<glyph unicode="&#xd0;" horiz-adv-x="1191" d="M-29 696v140h166v680h348q345 0 496 -220q133 -195 133 -538q0 -169 -32.5 -301t-88.5 -217t-136.5 -140t-170.5 -77.5t-197 -22.5h-352v696h-166zM291 141h186q252 0 366.5 146t114.5 471q0 320 -106 463q-110 153 -379 153h-182v-538h338v-140h-338v-555z" />
<glyph unicode="&#xd1;" horiz-adv-x="1220" d="M141 0v1516h185l614 -1264v1264h139v-1516h-172l-626 1294v-1294h-140zM236 1729q27 35 81.5 62.5t108.5 27.5q101 0 186 -29q99 -31 162 -31q80 0 144 58l61 -84q-78 -82 -193 -82q-101 0 -178 26q-84 31 -157 31q-89 0 -152 -63z" />
<glyph unicode="&#xd2;" horiz-adv-x="1255" d="M76 758v2q0 225 61 399.5t187.5 278.5t302.5 104q177 0 303.5 -104t187 -278.5t60.5 -401.5q0 -120 -19 -231t-61.5 -213t-105 -177t-156.5 -119.5t-209 -44.5q-107 0 -196.5 39t-154.5 109t-110 168t-67.5 216.5t-22.5 252.5zM233 756q0 -308 104.5 -475.5t289.5 -167.5 t290 168t105 477t-105 477t-290 168t-289.5 -168t-104.5 -477v-2zM342 1829l57 110l451 -258l-51 -96z" />
<glyph unicode="&#xd3;" horiz-adv-x="1255" d="M76 758v2q0 225 61 399.5t187.5 278.5t302.5 104q177 0 303.5 -104t187 -278.5t60.5 -401.5q0 -120 -19 -231t-61.5 -213t-105 -177t-156.5 -119.5t-209 -44.5q-107 0 -196.5 39t-154.5 109t-110 168t-67.5 216.5t-22.5 252.5zM233 756q0 -308 104.5 -475.5t289.5 -167.5 t290 168t105 477t-105 477t-290 168t-289.5 -168t-104.5 -477v-2zM408 1681l450 258l57 -110l-456 -244z" />
<glyph unicode="&#xd4;" horiz-adv-x="1255" d="M76 758v2q0 225 61 399.5t187.5 278.5t302.5 104q177 0 303.5 -104t187 -278.5t60.5 -401.5q0 -120 -19 -231t-61.5 -213t-105 -177t-156.5 -119.5t-209 -44.5q-107 0 -196.5 39t-154.5 109t-110 168t-67.5 216.5t-22.5 252.5zM233 756q0 -308 104.5 -475.5t289.5 -167.5 t290 168t105 477t-105 477t-290 168t-289.5 -168t-104.5 -477v-2zM272 1628l289 252h133l287 -252h-143l-209 174l-211 -174h-146z" />
<glyph unicode="&#xd5;" horiz-adv-x="1255" d="M76 758v2q0 225 61 399.5t187.5 278.5t302.5 104q177 0 303.5 -104t187 -278.5t60.5 -401.5q0 -120 -19 -231t-61.5 -213t-105 -177t-156.5 -119.5t-209 -44.5q-107 0 -196.5 39t-154.5 109t-110 168t-67.5 216.5t-22.5 252.5zM233 756q0 -308 104.5 -475.5t289.5 -167.5 t290 168t105 477t-105 477t-290 168t-289.5 -168t-104.5 -477v-2zM254 1739q27 35 80.5 62.5t107.5 27.5q100 0 189 -29q95 -31 160 -31q79 0 143 58l61 -84q-78 -82 -190 -82q-97 0 -180 27q-82 30 -158 30q-91 0 -150 -63z" />
<glyph unicode="&#xd6;" horiz-adv-x="1255" d="M76 758v2q0 225 61 399.5t187.5 278.5t302.5 104q177 0 303.5 -104t187 -278.5t60.5 -401.5q0 -120 -19 -231t-61.5 -213t-105 -177t-156.5 -119.5t-209 -44.5q-107 0 -196.5 39t-154.5 109t-110 168t-67.5 216.5t-22.5 252.5zM233 756q0 -308 104.5 -475.5t289.5 -167.5 t290 168t105 477t-105 477t-290 168t-289.5 -168t-104.5 -477v-2zM410 1634v234h133v-234h-133zM715 1634v234h131v-234h-131z" />
<glyph unicode="&#xd7;" horiz-adv-x="1099" d="M68 94l389 422l-389 416l92 96l389 -422l391 422l92 -96l-391 -416l391 -422l-92 -94l-391 424l-389 -424z" />
<glyph unicode="&#xd8;" horiz-adv-x="1255" d="M-55 -51l235 311q-104 203 -104 498q0 226 61 401t187.5 279t302.5 104q247 0 389 -194l168 219h131l-242 -314q105 -199 105 -495q0 -120 -19 -231t-61.5 -213t-105 -177t-156.5 -119.5t-209 -44.5q-243 0 -383 193l-168 -217h-131zM233 758q0 -208 58 -355l629 818 q-99 182 -293 182q-185 0 -289.5 -168t-104.5 -477zM336 291q100 -178 291 -178q185 0 290 168t105 477q0 215 -61 350z" />
<glyph unicode="&#xd9;" horiz-adv-x="1132" d="M131 399v1117h154v-1106q0 -75 15.5 -130.5t59.5 -97.5q67 -67 205 -67q137 0 207 67q44 42 60 97.5t16 130.5v1106h153v-1117q0 -107 -25.5 -181.5t-80.5 -129.5q-112 -115 -328 -115t-331 115q-105 108 -105 311zM236 1829l55 110l452 -258l-51 -96z" />
<glyph unicode="&#xda;" horiz-adv-x="1132" d="M131 399v1117h154v-1106q0 -75 15.5 -130.5t59.5 -97.5q67 -67 205 -67q137 0 207 67q44 42 60 97.5t16 130.5v1106h153v-1117q0 -107 -25.5 -181.5t-80.5 -129.5q-112 -115 -328 -115t-331 115q-105 108 -105 311zM352 1681l453 258l57 -110l-459 -244z" />
<glyph unicode="&#xdb;" horiz-adv-x="1132" d="M131 399v1117h154v-1106q0 -75 15.5 -130.5t59.5 -97.5q67 -67 205 -67q137 0 207 67q44 42 60 97.5t16 130.5v1106h153v-1117q0 -107 -25.5 -181.5t-80.5 -129.5q-112 -115 -328 -115t-331 115q-105 108 -105 311zM213 1640l289 252h131l289 -252h-146l-209 177 l-211 -177h-143z" />
<glyph unicode="&#xdc;" horiz-adv-x="1132" d="M131 399v1117h154v-1106q0 -75 15.5 -130.5t59.5 -97.5q67 -67 205 -67q137 0 207 67q44 42 60 97.5t16 130.5v1106h153v-1117q0 -107 -25.5 -181.5t-80.5 -129.5q-112 -115 -328 -115t-331 115q-105 108 -105 311zM348 1634v234h133v-234h-133zM653 1634v234h133v-234 h-133z" />
<glyph unicode="&#xdd;" horiz-adv-x="919" d="M-6 1516h160l307 -818l305 818h160l-389 -965v-551h-154v551zM276 1681l453 258l55 -110l-456 -244z" />
<glyph unicode="&#xde;" horiz-adv-x="1021" d="M143 0v1516h154v-299h133q132 0 220 -23.5t159 -79.5q67 -55 107 -148t40 -200q0 -106 -40 -198.5t-107 -147.5q-71 -56 -159.5 -79.5t-219.5 -23.5h-133v-317h-154zM297 459h133q107 0 167 14t112 55q42 34 67 98.5t25 139.5q0 74 -26 140t-68 100q-48 40 -108.5 54.5 t-168.5 14.5h-133v-616z" />
<glyph unicode="&#xdf;" horiz-adv-x="1034" d="M135 0v1026q0 150 19 234t63 143q94 139 303 139q157 0 250.5 -107t93.5 -274q0 -288 -202 -377q137 -27 210.5 -135t73.5 -254q0 -194 -97.5 -308t-275.5 -114q-56 0 -104.5 15t-92 47t-74.5 90.5t-44 138.5l4 -264h-127zM272 408h70q2 -81 22.5 -142t53.5 -95.5 t70.5 -51.5t78.5 -17q112 0 174 78t62 207q0 156 -86 242q-40 35 -82.5 52t-118.5 17q-31 2 -70 2v127q26 0 46 2q113 3 171 86.5t58 229.5q0 120 -60 194t-159 74q-118 0 -180 -94q-30 -46 -40 -111.5t-10 -191.5v-608z" />
<glyph unicode="&#xe0;" horiz-adv-x="1003" d="M76 555q0 262 100.5 424t272.5 162q214 0 294 -242q-2 68 -2 215h127v-1114h-127q0 160 2 213q-37 -115 -113 -177.5t-181 -62.5q-166 0 -269.5 161t-103.5 421zM203 1464l57 111l451 -258l-52 -96zM213 555q0 -196 68.5 -321t191.5 -125t195 122q63 105 63 326 q0 224 -63 326q-73 123 -195 123q-83 0 -142.5 -60t-88.5 -160t-29 -229v-2z" />
<glyph unicode="&#xe1;" horiz-adv-x="1003" d="M76 555q0 262 100.5 424t272.5 162q214 0 294 -242q-2 68 -2 215h127v-1114h-127q0 160 2 213q-37 -115 -113 -177.5t-181 -62.5q-166 0 -269.5 161t-103.5 421zM213 555q0 -196 68.5 -321t191.5 -125t195 122q63 105 63 326q0 224 -63 326q-73 123 -195 123 q-83 0 -142.5 -60t-88.5 -160t-29 -229v-2zM307 1317l451 258l57 -111l-457 -243z" />
<glyph unicode="&#xe2;" horiz-adv-x="1003" d="M76 555q0 262 100.5 424t272.5 162q214 0 294 -242q-2 68 -2 215h127v-1114h-127q0 160 2 213q-37 -115 -113 -177.5t-181 -62.5q-166 0 -269.5 161t-103.5 421zM127 1264l287 252h133l289 -252h-146l-209 174l-211 -174h-143zM213 555q0 -196 68.5 -321t191.5 -125 t195 122q63 105 63 326q0 224 -63 326q-73 123 -195 123q-83 0 -142.5 -60t-88.5 -160t-29 -229v-2z" />
<glyph unicode="&#xe3;" horiz-adv-x="1003" d="M76 555q0 262 100.5 424t272.5 162q214 0 294 -242q-2 68 -2 215h127v-1114h-127q0 160 2 213q-37 -115 -113 -177.5t-181 -62.5q-166 0 -269.5 161t-103.5 421zM127 1374q27 35 81 62.5t107 27.5q103 0 189 -28q95 -31 160 -31q79 0 145 57l61 -82q-76 -84 -192 -84 q-98 0 -178 27q-88 31 -158 31q-92 0 -152 -64zM213 555q0 -196 68.5 -321t191.5 -125t195 122q63 105 63 326q0 224 -63 326q-73 123 -195 123q-83 0 -142.5 -60t-88.5 -160t-29 -229v-2z" />
<glyph unicode="&#xe4;" horiz-adv-x="1003" d="M76 555q0 262 100.5 424t272.5 162q214 0 294 -242q-2 68 -2 215h127v-1114h-127q0 160 2 213q-37 -115 -113 -177.5t-181 -62.5q-166 0 -269.5 161t-103.5 421zM213 555q0 -196 68.5 -321t191.5 -125t195 122q63 105 63 326q0 224 -63 326q-73 123 -195 123 q-83 0 -142.5 -60t-88.5 -160t-29 -229v-2zM256 1264v233h131v-233h-131zM559 1264v233h133v-233h-133z" />
<glyph unicode="&#xe5;" horiz-adv-x="1003" d="M76 555q0 262 100.5 424t272.5 162q214 0 294 -242q-2 68 -2 215h127v-1114h-127q0 160 2 213q-37 -115 -113 -177.5t-181 -62.5q-166 0 -269.5 161t-103.5 421zM213 555q0 -196 68.5 -321t191.5 -125t195 122q63 105 63 326q0 224 -63 326q-73 123 -195 123 q-83 0 -142.5 -60t-88.5 -160t-29 -229v-2zM268 1415q0 85 60 145t145 60h2q83 0 143 -60t60 -145q0 -83 -60 -143t-145 -60q-86 0 -145.5 59.5t-59.5 143.5zM352 1417q0 -50 35 -84.5t86 -34.5t85 34.5t34 84.5q0 51 -34 86t-85 35h-2q-50 0 -84.5 -35t-34.5 -86z" />
<glyph unicode="&#xe6;" horiz-adv-x="1636" d="M63 555q0 263 103 424.5t283 161.5q214 0 294 -242l-2 215h127l-2 -215q94 242 312 242q175 0 282 -146q67 -92 89 -207.5t22 -263.5h-697q0 -120 29.5 -212.5t95.5 -151t162 -58.5q101 0 170.5 61t91.5 161h136q-28 -160 -129 -255.5t-250 -95.5q-223 0 -314 240l2 -213 h-127l2 213q-35 -115 -111.5 -177.5t-182.5 -62.5q-174 0 -280 160t-106 422zM201 555q0 -194 73 -320t197 -126q61 0 109 28t76.5 72t47 105t25 119.5t6.5 123.5q0 223 -67 328q-70 121 -197 121q-124 0 -197 -126.5t-73 -322.5v-2zM874 631h558q-3 190 -76 291.5 t-207 101.5q-131 0 -205 -121q-67 -107 -70 -272z" />
<glyph unicode="&#xe7;" horiz-adv-x="880" d="M45 555q0 271 116.5 428.5t307.5 157.5q167 0 264 -114.5t105 -297.5h-140q-16 153 -80 218t-153 65q-136 0 -203 -119q-72 -129 -72 -336q0 -219 72.5 -337t204.5 -118q100 0 160 74t78 203h139q-18 -166 -100.5 -275.5t-223.5 -126.5l-45 -96q20 8 45 8q60 0 103 -43.5 t43 -109.5q0 -69 -52.5 -116.5t-126.5 -47.5q-135 0 -174 100l49 39q15 -35 46.5 -48t60.5 -13q40 0 68 23.5t28 62.5q0 34 -24 58t-54 24q-47 0 -71 -37l-60 18l82 178q-80 5 -146 39.5t-111 89t-76 127.5t-45.5 153.5t-14.5 168.5z" />
<glyph unicode="&#xe8;" horiz-adv-x="978" d="M80 555q0 263 114 424.5t308 161.5q193 0 299 -158q106 -156 102 -467h-680q0 -181 73.5 -297.5t209.5 -116.5q98 0 162.5 60.5t87.5 161.5h135q-29 -168 -139 -263q-105 -88 -246 -88q-111 0 -195.5 50t-133.5 134.5t-73 185t-24 212.5zM205 1464l55 111l453 -258 l-51 -96zM223 637h541q-3 177 -73.5 282t-194.5 105q-120 0 -195 -109.5t-78 -277.5z" />
<glyph unicode="&#xe9;" horiz-adv-x="978" d="M80 555q0 263 114 424.5t308 161.5q193 0 299 -158q106 -156 102 -467h-680q0 -181 73.5 -297.5t209.5 -116.5q98 0 162.5 60.5t87.5 161.5h135q-29 -168 -139 -263q-105 -88 -246 -88q-111 0 -195.5 50t-133.5 134.5t-73 185t-24 212.5zM223 637h541q-3 177 -73.5 282 t-194.5 105q-120 0 -195 -109.5t-78 -277.5zM268 1317l453 258l57 -111l-459 -243z" />
<glyph unicode="&#xea;" horiz-adv-x="978" d="M80 555q0 263 114 424.5t308 161.5q193 0 299 -158q106 -156 102 -467h-680q0 -181 73.5 -297.5t209.5 -116.5q98 0 162.5 60.5t87.5 161.5h135q-29 -168 -139 -263q-105 -88 -246 -88q-111 0 -195.5 50t-133.5 134.5t-73 185t-24 212.5zM135 1264l289 252h133l287 -252 h-146l-209 174l-208 -174h-146zM223 637h541q-3 177 -73.5 282t-194.5 105q-120 0 -195 -109.5t-78 -277.5z" />
<glyph unicode="&#xeb;" horiz-adv-x="978" d="M80 555q0 263 114 424.5t308 161.5q193 0 299 -158q106 -156 102 -467h-680q0 -181 73.5 -297.5t209.5 -116.5q98 0 162.5 60.5t87.5 161.5h135q-29 -168 -139 -263q-105 -88 -246 -88q-111 0 -195.5 50t-133.5 134.5t-73 185t-24 212.5zM223 637h541q-3 177 -73.5 282 t-194.5 105q-120 0 -195 -109.5t-78 -277.5zM272 1264v233h131v-233h-131zM575 1264v233h134v-233h-134z" />
<glyph unicode="&#xec;" horiz-adv-x="440" d="M-63 1464l55 111l452 -258l-51 -96zM152 0v1114h137v-1114h-137z" />
<glyph unicode="&#xed;" horiz-adv-x="440" d="M-4 1317l453 258l57 -111l-457 -243zM152 0v1114h137v-1114h-137z" />
<glyph unicode="&#xee;" horiz-adv-x="440" d="M-135 1264l289 252h133l286 -252h-143l-211 174l-209 -174h-145zM152 0v1114h137v-1114h-137z" />
<glyph unicode="&#xef;" horiz-adv-x="440" d="M2 1264v233h133v-233h-133zM152 0v1114h137v-1114h-137zM305 1264v233h133v-233h-133z" />
<glyph unicode="&#xf0;" horiz-adv-x="1011" d="M76 528q0 158 43.5 281.5t135 198.5t220.5 75q75 0 132 -26t106 -96q-10 26 -23.5 51.5t-24.5 42t-36 51.5q-94 122 -150 162l-329 -129v112l256 99q-85 73 -189 125l127 51q93 -49 186 -127l326 127v-113l-248 -96q156 -147 246 -340q80 -176 80 -408q0 -133 -26 -240.5 t-78 -187.5t-136.5 -124t-195.5 -44q-107 0 -189.5 43t-132.5 119.5t-75 175.5t-25 217zM213 526q0 -203 72.5 -313.5t212.5 -110.5q145 0 219 112t74 316q0 86 -15 158.5t-47 134t-90 96.5t-137 35q-143 0 -216 -110t-73 -316v-2z" />
<glyph unicode="&#xf1;" horiz-adv-x="1017" d="M135 0v1114h123q0 -120 -4 -190q40 112 125 164.5t190 52.5q150 0 235 -93t85 -288v-760h-137v717q0 41 -3 74t-15.5 75.5t-34 71t-63 48.5t-97.5 20q-125 0 -196 -88t-71 -259v-659h-137zM135 1374q27 35 81 62.5t108 27.5q102 0 188 -28q95 -31 160 -31q79 0 145 57 l60 -82q-76 -84 -191 -84q-98 0 -178 27q-88 31 -160 31q-93 0 -149 -64z" />
<glyph unicode="&#xf2;" horiz-adv-x="1009" d="M76 557v2q0 97 16 182.5t49.5 159t83.5 127t121.5 83.5t159.5 30q108 0 191.5 -46t134.5 -127t76.5 -185t25.5 -226t-25.5 -226t-76.5 -185t-134.5 -127t-191.5 -46q-109 0 -193 46t-135 127t-76.5 185t-25.5 226zM219 555q0 -223 72.5 -338t216.5 -115q139 0 211 116 t72 339q0 224 -72.5 339.5t-214.5 115.5q-141 0 -213 -116t-72 -339v-2zM219 1464l57 111l451 -258l-51 -96z" />
<glyph unicode="&#xf3;" horiz-adv-x="1009" d="M76 557v2q0 97 16 182.5t49.5 159t83.5 127t121.5 83.5t159.5 30q108 0 191.5 -46t134.5 -127t76.5 -185t25.5 -226t-25.5 -226t-76.5 -185t-134.5 -127t-191.5 -46q-109 0 -193 46t-135 127t-76.5 185t-25.5 226zM219 555q0 -223 72.5 -338t216.5 -115q139 0 211 116 t72 339q0 224 -72.5 339.5t-214.5 115.5q-141 0 -213 -116t-72 -339v-2zM285 1317l452 258l56 -111l-457 -243z" />
<glyph unicode="&#xf4;" horiz-adv-x="1009" d="M76 557v2q0 97 16 182.5t49.5 159t83.5 127t121.5 83.5t159.5 30q108 0 191.5 -46t134.5 -127t76.5 -185t25.5 -226t-25.5 -226t-76.5 -185t-134.5 -127t-191.5 -46q-109 0 -193 46t-135 127t-76.5 185t-25.5 226zM152 1264l286 252h133l287 -252h-143l-209 174 l-211 -174h-143zM219 555q0 -223 72.5 -338t216.5 -115q139 0 211 116t72 339q0 224 -72.5 339.5t-214.5 115.5q-141 0 -213 -116t-72 -339v-2z" />
<glyph unicode="&#xf5;" horiz-adv-x="1009" d="M76 557v2q0 97 16 182.5t49.5 159t83.5 127t121.5 83.5t159.5 30q108 0 191.5 -46t134.5 -127t76.5 -185t25.5 -226t-25.5 -226t-76.5 -185t-134.5 -127t-191.5 -46q-109 0 -193 46t-135 127t-76.5 185t-25.5 226zM131 1374q27 35 81 62.5t107 27.5q103 0 189 -28 q95 -31 160 -31q79 0 145 57l59 -82q-76 -84 -190 -84q-98 0 -178 27q-88 31 -160 31q-89 0 -149 -64zM219 555q0 -223 72.5 -338t216.5 -115q139 0 211 116t72 339q0 224 -72.5 339.5t-214.5 115.5q-141 0 -213 -116t-72 -339v-2z" />
<glyph unicode="&#xf6;" horiz-adv-x="1009" d="M76 557v2q0 97 16 182.5t49.5 159t83.5 127t121.5 83.5t159.5 30q108 0 191.5 -46t134.5 -127t76.5 -185t25.5 -226t-25.5 -226t-76.5 -185t-134.5 -127t-191.5 -46q-109 0 -193 46t-135 127t-76.5 185t-25.5 226zM219 555q0 -223 72.5 -338t216.5 -115q139 0 211 116 t72 339q0 224 -72.5 339.5t-214.5 115.5q-141 0 -213 -116t-72 -339v-2zM287 1264v233h133v-233h-133zM592 1264v233h133v-233h-133z" />
<glyph unicode="&#xf7;" horiz-adv-x="1099" d="M68 451v127h964v-127h-964zM471 -43v225h158v-225h-158zM471 846v225h158v-225h-158z" />
<glyph unicode="&#xf8;" horiz-adv-x="1009" d="M-41 -47l195 242q-78 139 -78 362q0 122 25.5 226t76.5 185t135 127t193 46q186 0 289 -137l137 157h119l-195 -241q78 -144 78 -363q0 -122 -25.5 -226t-76.5 -185t-134.5 -127t-191.5 -46q-184 0 -291 140l-135 -160h-121zM217 557q0 -131 35 -227l463 561 q-67 121 -211 121q-140 0 -213.5 -118.5t-73.5 -336.5zM295 223q67 -121 213 -121q139 0 212 118.5t73 336.5q0 139 -35 227z" />
<glyph unicode="&#xf9;" horiz-adv-x="1017" d="M129 354v760h137v-717q0 -41 3 -74t15.5 -75.5t34 -70.5t63 -48t97.5 -20q125 0 195.5 87.5t70.5 258.5v659h138v-1114h-127q0 125 4 195q-39 -113 -122.5 -167.5t-188.5 -54.5q-150 0 -235 93t-85 288zM182 1464l58 111l452 -258l-51 -96z" />
<glyph unicode="&#xfa;" horiz-adv-x="1017" d="M129 354v760h137v-717q0 -41 3 -74t15.5 -75.5t34 -70.5t63 -48t97.5 -20q125 0 195.5 87.5t70.5 258.5v659h138v-1114h-127q0 125 4 195q-39 -113 -122.5 -167.5t-188.5 -54.5q-150 0 -235 93t-85 288zM313 1317l453 258l57 -111l-456 -243z" />
<glyph unicode="&#xfb;" horiz-adv-x="1017" d="M129 354v760h137v-717q0 -41 3 -74t15.5 -75.5t34 -70.5t63 -48t97.5 -20q125 0 195.5 87.5t70.5 258.5v659h138v-1114h-127q0 125 4 195q-39 -113 -122.5 -167.5t-188.5 -54.5q-150 0 -235 93t-85 288zM156 1264l286 252h133l287 -252h-143l-209 174l-211 -174h-143z " />
<glyph unicode="&#xfc;" horiz-adv-x="1017" d="M129 354v760h137v-717q0 -41 3 -74t15.5 -75.5t34 -70.5t63 -48t97.5 -20q125 0 195.5 87.5t70.5 258.5v659h138v-1114h-127q0 125 4 195q-39 -113 -122.5 -167.5t-188.5 -54.5q-150 0 -235 93t-85 288zM291 1264v233h133v-233h-133zM596 1264v233h131v-233h-131z" />
<glyph unicode="&#xfd;" horiz-adv-x="817" d="M12 1114h144l247 -887l263 887h141l-479 -1526h-138l144 439zM213 1317l453 258l55 -111l-457 -243z" />
<glyph unicode="&#xfe;" horiz-adv-x="1003" d="M135 -412v1928h137v-394q0 -44 -2 -108.5t-2 -89.5q36 107 110 162t175 55q168 0 271.5 -160.5t103.5 -425.5q0 -260 -100.5 -421t-274.5 -161q-98 0 -174.5 61.5t-110.5 162.5q0 -17 2 -83.5t2 -121.5v-404h-137zM272 557q0 -218 68 -326q69 -122 190 -122 q125 0 193 125t68 323v2q0 128 -29 227.5t-88.5 159.5t-143.5 60q-120 0 -190 -123q-68 -105 -68 -326z" />
<glyph unicode="&#xff;" horiz-adv-x="817" d="M12 1114h144l247 -887l263 887h141l-479 -1526h-138l144 439zM190 1264v233h132v-233h-132zM494 1264v233h133v-233h-133z" />
<glyph unicode="&#x152;" horiz-adv-x="1878" d="M76 758q0 356 148 570t401 214q148 0 257 -82.5t169 -240.5q0 25 -1 76.5t-1 78.5v142h712v-142h-577v-528h577v-141h-577v-564h577v-141h-712v143q0 27 1 79t1 77q-60 -157 -167 -241.5t-259 -84.5q-253 0 -401 214.5t-148 570.5zM233 750q0 -297 110.5 -466t291.5 -169 q183 0 289 161t106 476q0 323 -106.5 486t-292.5 163q-178 0 -288 -171.5t-110 -477.5v-2z" />
<glyph unicode="&#x153;" horiz-adv-x="1681" d="M74 557q0 97 15.5 183t49.5 160t83.5 127.5t120.5 83.5t157 30q140 0 230 -73.5t128 -203.5q44 132 138 204.5t223 72.5q189 0 294 -156q61 -90 82 -204t21 -257h-686q0 -122 27.5 -214t92.5 -150t162 -58q100 0 166.5 61t89.5 161h136q-30 -170 -140 -263 q-105 -88 -243 -88q-141 0 -230.5 76.5t-132.5 206.5q-39 -135 -130 -209t-232 -74q-106 0 -188 46t-132.5 127t-76 185t-25.5 226zM217 555q0 -222 72.5 -337.5t214.5 -115.5t215.5 116t73.5 339q0 224 -73.5 339.5t-217.5 115.5q-141 0 -213 -116t-72 -339v-2zM930 631 h549q-5 187 -76 290t-199 103q-87 0 -150 -57t-92.5 -143.5t-31.5 -192.5z" />
<glyph unicode="&#x178;" horiz-adv-x="919" d="M-6 1516h160l307 -818l305 818h160l-389 -965v-551h-154v551zM242 1634v234h133v-234h-133zM547 1634v234h133v-234h-133z" />
<glyph unicode="&#x2c6;" horiz-adv-x="856" d="M74 1264l288 252h132l288 -252h-145l-209 174l-211 -174h-143z" />
<glyph unicode="&#x2dc;" horiz-adv-x="856" d="M53 1374q26 35 81 62.5t108 27.5q102 0 188 -28q95 -31 160 -31q79 0 145 57l62 -82q-76 -84 -193 -84q-98 0 -178 27q-88 31 -158 31q-91 0 -151 -64z" />
<glyph unicode="&#x2000;" horiz-adv-x="987" />
<glyph unicode="&#x2001;" horiz-adv-x="1974" />
<glyph unicode="&#x2002;" horiz-adv-x="987" />
<glyph unicode="&#x2003;" horiz-adv-x="1974" />
<glyph unicode="&#x2004;" horiz-adv-x="658" />
<glyph unicode="&#x2005;" horiz-adv-x="493" />
<glyph unicode="&#x2006;" horiz-adv-x="329" />
<glyph unicode="&#x2007;" horiz-adv-x="329" />
<glyph unicode="&#x2008;" horiz-adv-x="246" />
<glyph unicode="&#x2009;" horiz-adv-x="394" />
<glyph unicode="&#x200a;" horiz-adv-x="109" />
<glyph unicode="&#x2010;" horiz-adv-x="536" d="M51 504v137h434v-137h-434z" />
<glyph unicode="&#x2011;" horiz-adv-x="536" d="M51 504v137h434v-137h-434z" />
<glyph unicode="&#x2012;" horiz-adv-x="536" d="M51 504v137h434v-137h-434z" />
<glyph unicode="&#x2013;" horiz-adv-x="1024" d="M45 504v137h934v-137h-934z" />
<glyph unicode="&#x2014;" horiz-adv-x="2048" d="M45 504v137h1958v-137h-1958z" />
<glyph unicode="&#x2018;" horiz-adv-x="526" d="M113 1516h149l146 -388h-134z" />
<glyph unicode="&#x2019;" horiz-adv-x="526" d="M119 1128l145 388h150l-162 -388h-133z" />
<glyph unicode="&#x201a;" horiz-adv-x="526" d="M119 -170l145 387h150l-162 -387h-133z" />
<glyph unicode="&#x201c;" horiz-adv-x="813" d="M127 1516h152l145 -388h-133zM383 1516h149l148 -388h-135z" />
<glyph unicode="&#x201d;" horiz-adv-x="813" d="M135 1128l146 388h149l-162 -388h-133zM389 1128l148 388h149l-164 -388h-133z" />
<glyph unicode="&#x201e;" horiz-adv-x="813" d="M135 -170l146 387h149l-162 -387h-133zM389 -170l148 387h149l-164 -387h-133z" />
<glyph unicode="&#x2022;" horiz-adv-x="862" d="M182 756q-1 103 71.5 174t178.5 71h2q103 0 175.5 -71.5t72.5 -173.5q0 -103 -73 -175.5t-177 -72.5q-106 0 -179 72.5t-71 175.5z" />
<glyph unicode="&#x2026;" horiz-adv-x="2048" d="M272 0v217h140v-217h-140zM954 0v217h140v-217h-140zM1636 0v217h140v-217h-140z" />
<glyph unicode="&#x202f;" horiz-adv-x="394" />
<glyph unicode="&#x2039;" horiz-adv-x="530" d="M88 569l221 389h133l-221 -389l221 -383h-133z" />
<glyph unicode="&#x203a;" horiz-adv-x="530" d="M88 186l221 383l-221 389h133l221 -389l-221 -383h-133z" />
<glyph unicode="&#x205f;" horiz-adv-x="493" />
<glyph unicode="&#x20ac;" horiz-adv-x="1138" d="M37 561l22 123h138v57q0 59 2 88h-162l22 123h150q32 260 146 407.5t315 147.5q92 0 165.5 -30t118 -74t75.5 -104.5t44.5 -112t18.5 -105.5h-156q-18 144 -87 217.5t-175 73.5q-132 0 -204.5 -104t-92.5 -316h530l-22 -123h-514q0 -14 -1 -43t-1 -45v-57h487l-22 -123 h-457q22 -218 97 -334t200 -116q45 0 81 9t74.5 34t64.5 79.5t36 135.5h160q-7 -86 -33.5 -154t-66 -112.5t-93.5 -73.5t-111.5 -41.5t-123.5 -12.5q-104 0 -185.5 42.5t-136.5 121.5t-88.5 184t-46.5 238h-168z" />
<glyph unicode="&#x2122;" horiz-adv-x="1931" d="M55 1411v105h625v-105h-248v-790h-129v790h-248zM793 621v895h170l337 -705l340 705h168v-895h-118v733l-344 -733h-91l-342 731v-731h-120z" />
<glyph unicode="&#xe000;" horiz-adv-x="1116" d="M0 0v1116h1116v-1116h-1116z" />
</font>
</defs>
</svg>
